<?xml version='1.0' encoding='utf-8'?>
<svg xmlns="http://www.w3.org/2000/svg" 
    width="91.44mm" 
    height="91.44mm" 
    version="1.1" 
    style="shape-rendering:geometricPrecision; text-rendering:geometricPrecision; image-rendering:optimizeQuality; fill-rule:evenodd; clip-rule:evenodd" 
    viewBox="0 0 9144 9144"> 
        <defs> 
            <style type="text/css"> 
             .fil0 {fill:#ff5252} .fil1 {fill:#fefefe;fill-rule:nonzero}
            </style> 
        </defs> 
        <g id="Layer_x0020_1"> 
            <metadata id="CorelCorpID_0Corel-Layer"/> 
            <g id="_2744629463488"> 
                <polygon class="fil0" points="0,0 9144,0 9144,9144 0,9144 "/> 
                <path class="fil1" d="M4572 4660c-49,0 -88,-39 -88,-88l0 -1333c0,-49 39,-88 88,-88 49,0 88,39 88,88l0 1245 1245 0c49,0 88,39 88,88 0,49 -39,88 -88,88l-1333 0zm2029 -88c0,-560 -227,-1067 -594,-1435 -368,-367 -875,-594 -1435,-594 -560,0 -1067,227 -1435,594 -367,368 -594,875 -594,1435 0,560 227,1067 594,1435 368,367 875,594 1435,594 560,0 1067,-227 1435,-594 367,-368 594,-875 594,-1435zm-470 -1559c399,399 646,950 646,1559 0,609 -247,1160 -646,1559 -399,399 -950,646 -1559,646 -609,0 -1160,-247 -1559,-646 -399,-399 -646,-950 -646,-1559 0,-609 247,-1160 646,-1559 399,-399 950,-646 1559,-646 609,0 1160,247 1559,646z"/>
            </g> 
        </g> 
</svg>